# xmcd
#
# Track frame offsets: 
#        150
#        68600
#        112775
#        161237
#        203775
#        233102
#
# Disc length: 3918 seconds
#
# Revision: 0
# Processed by: cddbd v1.5.2PL0 Copyright (c) Steve Scherf et al.
# Submitted via: ExactAudioCopy v1.0b1
#
DISCID=460f4c06
DTITLE=Eugen Jochum - Beethoven Symphonies 7 ,Japan EMI,CD5
DYEAR=2002
DGENRE=Classical
TTITLE0=Symphony 7: 1 Poco Sostenuto - Vivace
TTITLE1=Symphony 7: 2 Allegretto
TTITLE2=Symphony 7: 3 Presto
TTITLE3=Symphony 7: 4 Allegro Con Brio
TTITLE4='Fidelio' Ouverture No.3
TTITLE5=Ouverture 'Fidelio' op.72b
EXTD=
EXTT0=
EXTT1=
EXTT2=
EXTT3=
EXTT4=
EXTT5=
PLAYORDER=
